<svg width="83.000000" height="83.000000" viewBox="0 0 83 83" fill="none" xmlns="http://www.w3.org/2000/svg" xmlns:xlink="http://www.w3.org/1999/xlink">
	<desc>
			Created with Pixso.
	</desc>
	<defs/>
	<circle cx="41.500000" cy="41.500000" r="40.000000" fill="#FFFFFF" fill-opacity="1.000000"/>
	<circle cx="41.500000" cy="41.500000" r="40.000000" stroke="#F37335" stroke-opacity="1.000000" stroke-width="3.000000"/>
	<path d="M48.5 31.5C48.5 34.8084 45.8086 37.5 42.5002 37.5C39.1917 37.5 36.5 34.8084 36.5 31.5C36.5 28.1916 39.1917 25.5 42.5002 25.5C45.8086 25.5 48.5 28.1916 48.5 31.5ZM45.5 31.5C45.5 29.8458 44.1543 28.5 42.5002 28.5C40.8459 28.5 39.5 29.8458 39.5 31.5C39.5 33.1542 40.8459 34.5 42.5002 34.5C44.1543 34.5 45.5 33.1542 45.5 31.5Z" clip-rule="evenodd" fill="#F37335" fill-opacity="1.000000" fill-rule="evenodd"/>
	<path d="M51.0208 47.8652L61.0305 47.8652L66.5 64.5L17.5 64.5L22.9695 47.8652L32.9795 47.8652C28.3054 43.4082 24.0525 39.0394 24.0525 31.4297C24.0525 21.1995 31.7385 13.5 42.0002 13.5C52.241 13.5 59.9475 21.1767 59.9475 31.4297C59.9475 39.0394 55.6946 43.4082 51.0208 47.8652ZM27.0437 31.4297C27.0437 22.772 33.3337 16.4883 42.0002 16.4883C50.6663 16.4883 56.9563 22.772 56.9563 31.4297C56.9563 41.1155 48.7727 44.546 42.0002 52.8878C39.9648 50.381 37.7883 48.3119 35.6716 46.3C30.8511 41.718 27.0437 38.0986 27.0437 31.4297ZM33.6245 57.8262L22.8428 57.8262L21.6311 61.5117L62.3689 61.5117L61.1572 57.8262L50.3755 57.8262L50.3755 54.8379L60.1748 54.8379L58.8645 50.8535L47.9824 50.8535L47.9824 50.7866C43.998 54.7341 42.9583 56.6657 42.0002 57.8712C41.0654 56.6949 39.9905 54.7222 36.0176 50.7864L36.0176 50.8535L25.1355 50.8535L23.8254 54.8379L33.6245 54.8379L33.6245 57.8262Z" clip-rule="evenodd" fill="#F37335" fill-opacity="1.000000" fill-rule="evenodd"/>
</svg>
