<svg width="83.000000" height="83.000000" viewBox="0 0 83 83" fill="none" xmlns="http://www.w3.org/2000/svg" xmlns:xlink="http://www.w3.org/1999/xlink">
	<desc>
			Created with Pixso.
	</desc>
	<defs/>
	<circle cx="41.500000" cy="41.500000" r="40.000000" fill="#FFFFFF" fill-opacity="1.000000"/>
	<circle cx="41.500000" cy="41.500000" r="40.000000" stroke="#FBB731" stroke-opacity="1.000000" stroke-width="3.000000"/>
	<path d="M61.6316 49.7626C58.609 49.7626 55.6484 49.2907 52.84 48.3623C51.4706 47.8903 49.918 48.254 49.0154 49.1721L43.4526 53.3732C37.0723 49.969 32.9872 45.8865 29.6244 39.5475L33.7119 34.1162C34.741 33.0847 35.1097 31.5811 34.6688 30.1704C33.7377 27.349 33.2632 24.3858 33.2632 21.3684C33.2632 19.2356 31.5276 17.5 29.3948 17.5L20.3684 17.5C18.2356 17.5 16.5 19.2356 16.5 21.3684C16.5 46.2527 36.7473 66.5 61.6316 66.5C63.7644 66.5 65.5 64.7644 65.5 62.6316L65.5 53.6311C65.5 51.4982 63.7644 49.7626 61.6316 49.7626ZM61.6316 63.9211C62.3408 63.9211 62.9211 63.3434 62.9211 62.6316L62.9214 62.6316L62.9214 53.6311C62.9214 52.9193 62.3411 52.3416 61.6318 52.3416C58.3359 52.3416 55.1019 51.8259 52.0175 50.8071C51.5583 50.655 51.0503 50.7736 50.7047 51.1141L44.3553 55.9264C43.9607 56.2255 43.4269 56.2719 42.9911 56.045C35.4244 52.1688 30.7797 47.5215 26.9552 40.009C26.7307 39.5706 26.7772 39.0419 27.0737 38.6473L31.7675 32.4321C32.2394 31.9421 32.3606 31.4443 32.2111 30.9621C31.2001 27.8958 30.6843 24.6618 30.6843 21.3684C30.6843 20.6566 30.104 20.0789 29.3948 20.0789L20.3684 20.0789C19.6592 20.0789 19.0789 20.6566 19.0789 21.3684C19.0789 44.8317 38.1682 63.9211 61.6316 63.9211Z" clip-rule="evenodd" fill="#FBB731" fill-opacity="1.000000" fill-rule="evenodd"/>
</svg>
