<svg width="83.000000" height="83.000000" viewBox="0 0 83 83" fill="none" xmlns="http://www.w3.org/2000/svg" xmlns:xlink="http://www.w3.org/1999/xlink">
	<desc>
			Created with Pixso.
	</desc>
	<defs/>
	<circle cx="41.500000" cy="41.500000" r="40.000000" fill="#FFFFFF" fill-opacity="1.000000"/>
	<circle cx="41.500000" cy="41.500000" r="40.000000" stroke="#F37335" stroke-opacity="1.000000" stroke-width="3.000000"/>
	<path d="M47.18 63.55C46.8 63.65 46.41 63.73 46.02 63.8C45.01 63.99 44.34 64.96 44.53 65.97C44.62 66.47 44.9 66.88 45.29 67.15C45.68 67.43 46.19 67.56 46.7 67.46C47.16 67.38 47.62 67.28 48.08 67.16C49.08 66.92 49.69 65.9 49.44 64.91C49.19 63.91 48.18 63.3 47.18 63.55Z" fill="#F37335" fill-opacity="1.000000" fill-rule="nonzero"/>
	<path d="M62.01 35.2C62.14 35.6 62.38 35.93 62.68 36.15C63.13 36.48 63.71 36.59 64.27 36.4C65.21 36.07 65.71 35.01 65.4 34.02C65.26 33.57 65.11 33.12 64.94 32.68C64.57 31.71 63.53 31.24 62.62 31.63C61.7 32.02 61.26 33.11 61.62 34.08C61.76 34.45 61.89 34.83 62.01 35.2Z" fill="#F37335" fill-opacity="1.000000" fill-rule="nonzero"/>
	<path d="M53.5 59.85C53.16 60.09 52.81 60.33 52.46 60.55C51.54 61.14 51.22 62.43 51.75 63.44C51.9 63.71 52.09 63.94 52.31 64.11C52.91 64.57 53.71 64.64 54.39 64.21C54.81 63.95 55.22 63.66 55.63 63.37C56.52 62.73 56.76 61.42 56.18 60.44C55.59 59.47 54.39 59.2 53.5 59.85Z" fill="#F37335" fill-opacity="1.000000" fill-rule="nonzero"/>
	<path d="M67.48 41.28C67.43 40.25 66.51 39.46 65.41 39.5C64.31 39.54 63.45 40.4 63.5 41.42C63.51 41.81 63.52 42.21 63.51 42.6C63.49 43.24 63.83 43.81 64.35 44.16C64.67 44.36 65.04 44.49 65.45 44.49C66.55 44.52 67.46 43.71 67.49 42.68C67.5 42.22 67.5 41.74 67.48 41.28Z" fill="#F37335" fill-opacity="1.000000" fill-rule="nonzero"/>
	<path d="M61.67 54.89C60.77 54.24 59.48 54.41 58.8 55.28C58.54 55.61 58.27 55.94 57.98 56.26C57.25 57.08 57.35 58.32 58.22 59.03C58.27 59.07 58.32 59.1 58.37 59.14C59.22 59.72 60.42 59.58 61.11 58.8C61.45 58.43 61.77 58.04 62.08 57.64C62.76 56.77 62.58 55.54 61.67 54.89Z" fill="#F37335" fill-opacity="1.000000" fill-rule="nonzero"/>
	<path d="M64.24 47.58C63.29 47.27 62.28 47.82 61.99 48.81C61.87 49.19 61.75 49.57 61.61 49.94C61.32 50.77 61.6 51.67 62.26 52.15C62.38 52.24 62.51 52.31 62.65 52.37C63.58 52.74 64.61 52.25 64.97 51.28C65.13 50.84 65.28 50.39 65.41 49.94C65.71 48.95 65.18 47.89 64.24 47.58Z" fill="#F37335" fill-opacity="1.000000" fill-rule="nonzero"/>
	<path d="M38 63.4C36.18 63.07 34.44 62.5 32.79 61.71C32.77 61.7 32.75 61.69 32.73 61.68C32.34 61.5 31.95 61.3 31.58 61.09C31.58 61.09 31.57 61.08 31.57 61.08C30.88 60.7 30.21 60.27 29.55 59.8C20 52.96 17.7 39.49 24.43 29.77C25.89 27.66 27.67 25.9 29.64 24.5C29.66 24.48 29.69 24.47 29.71 24.45C36.67 19.57 46.12 19.25 53.51 24.25L51.92 26.59C51.48 27.24 51.75 27.71 52.52 27.64L59.42 27.01C60.19 26.94 60.65 26.26 60.45 25.5L58.59 18.72C58.39 17.96 57.86 17.87 57.41 18.52L55.82 20.85C50.4 17.15 43.9 15.74 37.44 16.88C36.79 16.99 36.15 17.13 35.52 17.3C35.51 17.3 35.51 17.3 35.51 17.3C35.48 17.3 35.46 17.31 35.43 17.32C29.87 18.77 25.01 22.07 21.55 26.78C21.52 26.82 21.49 26.85 21.46 26.89C21.34 27.05 21.23 27.21 21.12 27.37C20.93 27.64 20.75 27.91 20.58 28.18C20.56 28.21 20.54 28.25 20.52 28.28C17.66 32.78 16.28 37.99 16.52 43.3C16.52 43.31 16.52 43.33 16.52 43.35C16.54 43.87 16.58 44.39 16.64 44.91C16.64 44.94 16.65 44.97 16.65 45.01C16.71 45.53 16.78 46.05 16.87 46.57C17.78 51.89 20.24 56.67 23.94 60.39C23.95 60.4 23.96 60.41 23.97 60.42C23.97 60.42 23.97 60.42 23.98 60.43C24.97 61.42 26.05 62.34 27.21 63.18C30.26 65.36 33.64 66.8 37.28 67.46C38.39 67.66 39.44 66.92 39.64 65.79C39.84 64.67 39.1 63.6 38 63.4Z" fill="#F37335" fill-opacity="1.000000" fill-rule="nonzero"/>
	<path d="M40.2 25.5C39.26 25.5 38.5 26.23 38.5 27.14L38.5 43.55L54.01 51.31C54.26 51.44 54.53 51.5 54.79 51.5C55.41 51.5 56 51.17 56.3 50.6C56.74 49.8 56.41 48.8 55.57 48.39L41.9 41.55L41.9 27.14C41.9 26.23 41.14 25.5 40.2 25.5Z" fill="#F37335" fill-opacity="1.000000" fill-rule="nonzero"/>
</svg>
